<?xml version="1.0" encoding="UTF-8" ?>
<!DOCTYPE svg PUBLIC "-//W3C//DTD SVG 1.1//EN" "http://www.w3.org/Graphics/SVG/1.1/DTD/svg11.dtd">
<svg width="32pt" height="32pt" viewBox="0 0 32 32" version="1.1" xmlns="http://www.w3.org/2000/svg">
<path fill="#ffffff" d=" M 0.00 0.00 L 1.93 0.00 C 1.86 1.21 1.22 1.81 0.00 1.81 L 0.00 0.00 Z" />
<path fill="#f68423" d=" M 1.93 0.00 L 30.36 0.00 C 30.12 1.27 30.66 1.90 32.00 1.91 L 32.00 30.36 C 30.73 30.12 30.10 30.66 30.09 32.00 L 1.64 32.00 C 1.88 30.73 1.34 30.10 -0.00 30.09 L 0.00 1.81 C 1.22 1.81 1.86 1.21 1.93 0.00 Z" />
<path fill="#ffffff" d=" M 30.36 0.00 L 32.00 0.00 L 32.00 1.91 C 30.66 1.90 30.12 1.27 30.36 0.00 Z" />
<path fill="#ffffff" d=" M 6.78 4.08 C 8.01 4.11 9.23 4.14 10.46 4.17 C 12.47 7.65 13.50 12.02 16.23 14.90 C 18.27 11.51 19.86 7.86 21.58 4.29 C 22.79 4.17 24.01 4.08 25.22 4.03 C 23.13 8.28 20.95 12.50 18.81 16.73 C 16.85 20.12 17.69 24.16 17.57 27.88 C 16.52 27.88 15.48 27.88 14.43 27.88 C 14.31 24.13 15.15 20.06 13.15 16.65 C 11.02 12.46 8.86 8.29 6.78 4.08 Z" />
<path fill="#ffffff" d=" M -0.00 30.09 C 1.34 30.10 1.88 30.73 1.64 32.00 L 0.00 32.00 L 0.00 30.09 Z" />
<path fill="#ffffff" d=" M 30.09 32.00 C 30.10 30.66 30.73 30.12 32.00 30.36 L 32.00 32.00 L 30.09 32.00 Z" />
</svg>
