<?xml version="1.0" standalone="no"?>
<!DOCTYPE svg PUBLIC "-//W3C//DTD SVG 20010904//EN" "http://www.w3.org/TR/2001/REC-SVG-20010904/DTD/svg10.dtd">
<svg version="1.0" xmlns="http://www.w3.org/2000/svg" width="512.00pt" height="512.00pt" viewBox="0 0 512.00 512.00" preserveAspectRatio="xMidYMid meet">
<g transform="translate(0.000000,512.000000) scale(0.100000,-0.100000)"
fill="#f68423" stroke="none">
<path d="M465 5105 c-238 -44 -378 -173 -442 -405 -17 -61 -18 -180 -18 -2140
0 -1949 1 -2079 18 -2140 57 -213 182 -338 397 -397 61 -17 180 -18 2140 -18
1949 0 2079 1 2140 18 213 57 338 182 397 397 17 61 18 180 18 2140 0 1960 -1
2079 -18 2140 -58 213 -179 335 -392 397 -56 17 -184 18 -2115 20 -1650 1
-2069 -1 -2125 -12z m1438 -1288 c37 -62 99 -161 137 -222 63 -101 140 -226
165 -267 20 -34 158 -254 190 -303 18 -27 61 -96 95 -152 35 -57 67 -103 71
-103 7 0 25 27 108 163 20 32 57 90 82 130 25 40 72 115 104 167 32 52 82 131
110 175 29 44 60 94 69 110 9 17 34 57 56 90 22 33 43 67 46 75 4 8 22 38 40
65 17 28 51 80 74 118 l43 67 273 0 c151 0 274 -3 274 -7 0 -8 -72 -130 -111
-188 -14 -22 -75 -119 -134 -215 -60 -96 -123 -197 -140 -225 -17 -27 -62 -99
-100 -160 -37 -60 -78 -126 -90 -145 -12 -19 -75 -120 -140 -225 -65 -104
-157 -253 -205 -330 -48 -77 -91 -147 -96 -155 -5 -8 -11 -260 -14 -560 l-5
-545 -247 -3 -248 -2 0 541 c0 536 0 542 -21 578 -29 47 -57 94 -101 161 -19
30 -61 98 -93 150 -32 52 -68 111 -80 130 -12 19 -64 103 -115 185 -51 83
-103 166 -115 185 -19 31 -116 186 -180 290 -12 19 -37 60 -57 90 -19 30 -61
98 -93 150 -85 139 -97 159 -138 221 -20 30 -37 61 -37 67 0 9 71 12 278 12
l277 -1 68 -112z"/>
</g>
</svg>
